<mxfile host="app.diagrams.net" modified="2023-06-23T06:14:47.024Z" agent="Mozilla/5.0 (Macintosh; Intel Mac OS X 10_15_7) AppleWebKit/537.36 (KHTML, like Gecko) Chrome/114.0.0.0 Safari/537.36" etag="v4TH9XqwHyxa5u6bZZ4M" version="21.4.0" type="github">
  <diagram name="Page-1" id="pCYoApze2mlJDBtpFGO-">
    <mxGraphModel dx="954" dy="616" grid="1" gridSize="10" guides="1" tooltips="1" connect="1" arrows="1" fold="1" page="1" pageScale="1" pageWidth="3300" pageHeight="4681" math="0" shadow="0">
      <root>
        <mxCell id="0" />
        <mxCell id="1" parent="0" />
        <mxCell id="_pW_XKn8Rst2uhFRbYtF-1" value="&lt;h1&gt;Why microservices&lt;/h1&gt;&lt;div&gt;&lt;ol&gt;&lt;li&gt;most popular&lt;/li&gt;&lt;li&gt;Not tied to specific technology&lt;/li&gt;&lt;li&gt;Solves real problems&lt;/li&gt;&lt;li&gt;In high demand&lt;/li&gt;&lt;/ol&gt;&lt;/div&gt;" style="text;html=1;strokeColor=none;fillColor=none;spacing=5;spacingTop=-20;whiteSpace=wrap;overflow=hidden;rounded=0;" vertex="1" parent="1">
          <mxGeometry x="240" y="90" width="1790" height="120" as="geometry" />
        </mxCell>
        <mxCell id="_pW_XKn8Rst2uhFRbYtF-2" value="1" style="ellipse;whiteSpace=wrap;html=1;aspect=fixed;" vertex="1" parent="1">
          <mxGeometry x="60" y="110" width="80" height="80" as="geometry" />
        </mxCell>
        <mxCell id="_pW_XKn8Rst2uhFRbYtF-3" value="&lt;h1&gt;History of microservices&lt;/h1&gt;&lt;div&gt;&lt;ol&gt;&lt;li&gt;Is a result of problems with 2 architecture paradigms&lt;/li&gt;&lt;ol&gt;&lt;li&gt;Monolith&lt;/li&gt;&lt;ol&gt;&lt;li&gt;The original architecture&lt;/li&gt;&lt;li&gt;All software components are executed in a single process. No distribution of any kind&lt;/li&gt;&lt;li&gt;Very strong coupling between all classes. Nothing separates the code.&lt;/li&gt;&lt;li&gt;Usually implemented as a silo. is a standalone app&lt;/li&gt;&lt;li&gt;&lt;br&gt;&lt;/li&gt;&lt;/ol&gt;&lt;li&gt;SOA&lt;/li&gt;&lt;/ol&gt;&lt;/ol&gt;&lt;/div&gt;" style="text;html=1;strokeColor=none;fillColor=none;spacing=5;spacingTop=-20;whiteSpace=wrap;overflow=hidden;rounded=0;" vertex="1" parent="1">
          <mxGeometry x="240" y="240" width="1790" height="190" as="geometry" />
        </mxCell>
        <mxCell id="_pW_XKn8Rst2uhFRbYtF-4" value="2" style="ellipse;whiteSpace=wrap;html=1;aspect=fixed;" vertex="1" parent="1">
          <mxGeometry x="60" y="260" width="80" height="80" as="geometry" />
        </mxCell>
        <mxCell id="_pW_XKn8Rst2uhFRbYtF-5" value="3" style="ellipse;whiteSpace=wrap;html=1;aspect=fixed;" vertex="1" parent="1">
          <mxGeometry x="70" y="680" width="80" height="80" as="geometry" />
        </mxCell>
        <mxCell id="_pW_XKn8Rst2uhFRbYtF-6" value="Monolith Architecture example" style="text;html=1;strokeColor=none;fillColor=none;align=center;verticalAlign=middle;whiteSpace=wrap;rounded=0;" vertex="1" parent="1">
          <mxGeometry x="240" y="700" width="400" height="30" as="geometry" />
        </mxCell>
        <mxCell id="_pW_XKn8Rst2uhFRbYtF-7" value="HR App" style="rounded=1;whiteSpace=wrap;html=1;" vertex="1" parent="1">
          <mxGeometry x="380" y="760" width="120" height="40" as="geometry" />
        </mxCell>
        <mxCell id="_pW_XKn8Rst2uhFRbYtF-14" style="edgeStyle=orthogonalEdgeStyle;rounded=0;orthogonalLoop=1;jettySize=auto;html=1;entryX=0.479;entryY=0.01;entryDx=0;entryDy=0;entryPerimeter=0;" edge="1" parent="1" source="_pW_XKn8Rst2uhFRbYtF-8" target="_pW_XKn8Rst2uhFRbYtF-9">
          <mxGeometry relative="1" as="geometry" />
        </mxCell>
        <mxCell id="_pW_XKn8Rst2uhFRbYtF-8" value="Front End" style="rounded=0;whiteSpace=wrap;html=1;" vertex="1" parent="1">
          <mxGeometry x="380" y="840" width="120" height="60" as="geometry" />
        </mxCell>
        <mxCell id="_pW_XKn8Rst2uhFRbYtF-17" value="" style="edgeStyle=orthogonalEdgeStyle;rounded=0;orthogonalLoop=1;jettySize=auto;html=1;" edge="1" parent="1" source="_pW_XKn8Rst2uhFRbYtF-9" target="_pW_XKn8Rst2uhFRbYtF-16">
          <mxGeometry relative="1" as="geometry" />
        </mxCell>
        <mxCell id="_pW_XKn8Rst2uhFRbYtF-9" value="" style="rounded=0;whiteSpace=wrap;html=1;" vertex="1" parent="1">
          <mxGeometry x="281" y="960" width="330" height="210" as="geometry" />
        </mxCell>
        <mxCell id="_pW_XKn8Rst2uhFRbYtF-10" value="" style="ellipse;whiteSpace=wrap;html=1;" vertex="1" parent="1">
          <mxGeometry x="300" y="990" width="120" height="80" as="geometry" />
        </mxCell>
        <mxCell id="_pW_XKn8Rst2uhFRbYtF-11" value="" style="ellipse;whiteSpace=wrap;html=1;aspect=fixed;" vertex="1" parent="1">
          <mxGeometry x="460" y="970" width="80" height="80" as="geometry" />
        </mxCell>
        <mxCell id="_pW_XKn8Rst2uhFRbYtF-12" value="" style="shape=hexagon;perimeter=hexagonPerimeter2;whiteSpace=wrap;html=1;fixedSize=1;" vertex="1" parent="1">
          <mxGeometry x="360" y="1080" width="120" height="80" as="geometry" />
        </mxCell>
        <mxCell id="_pW_XKn8Rst2uhFRbYtF-15" value="" style="ellipse;shape=cloud;whiteSpace=wrap;html=1;" vertex="1" parent="1">
          <mxGeometry x="491" y="1050" width="120" height="80" as="geometry" />
        </mxCell>
        <mxCell id="_pW_XKn8Rst2uhFRbYtF-16" value="DB" style="rounded=0;whiteSpace=wrap;html=1;" vertex="1" parent="1">
          <mxGeometry x="386" y="1240" width="120" height="60" as="geometry" />
        </mxCell>
        <mxCell id="_pW_XKn8Rst2uhFRbYtF-18" value="" style="shape=flexArrow;endArrow=classic;startArrow=classic;html=1;rounded=0;" edge="1" parent="1">
          <mxGeometry width="100" height="100" relative="1" as="geometry">
            <mxPoint x="160" y="1160" as="sourcePoint" />
            <mxPoint x="160" y="960" as="targetPoint" />
          </mxGeometry>
        </mxCell>
        <mxCell id="_pW_XKn8Rst2uhFRbYtF-19" value="Process" style="text;html=1;strokeColor=none;fillColor=none;align=center;verticalAlign=middle;whiteSpace=wrap;rounded=0;" vertex="1" parent="1">
          <mxGeometry x="190" y="1050" width="60" height="30" as="geometry" />
        </mxCell>
      </root>
    </mxGraphModel>
  </diagram>
</mxfile>
